<?xml version="1.0" standalone="no"?><!DOCTYPE svg PUBLIC "-//W3C//DTD SVG 1.1//EN" "http://www.w3.org/Graphics/SVG/1.1/DTD/svg11.dtd"><svg t="1589790971723" class="icon" viewBox="0 0 1024 1024" version="1.1" xmlns="http://www.w3.org/2000/svg" p-id="7866" xmlns:xlink="http://www.w3.org/1999/xlink" width="200" height="200"><defs><style type="text/css"></style></defs><path d="M833.536 495.616c-12.288 0-20.48 8.192-20.48 20.48v256c0 30.72-24.576 57.344-55.296 57.344H264.192c-30.72 0-55.296-26.624-55.296-57.344v-512c0-30.72 24.576-57.344 55.296-57.344h174.08c12.288 0 20.48-8.192 20.48-20.48s-8.192-20.48-20.48-20.48h-174.08c-53.248 0-96.256 45.056-96.256 98.304v512c0 53.248 43.008 98.304 96.256 98.304H757.76c53.248 0 96.256-45.056 96.256-98.304V516.096c0-12.288-8.192-20.48-20.48-20.48z" p-id="7867" fill="#ffffff"></path><path d="M327.68 727.04c0 12.288 8.192 20.48 20.48 20.48s20.48-8.192 20.48-20.48c0-225.28 184.32-409.6 413.696-413.696l-120.832 92.16c-8.192 6.144-10.24 20.48-4.096 28.672 4.096 6.144 10.24 8.192 16.384 8.192 4.096 0 8.192-2.048 12.288-4.096l161.792-122.88c4.096-4.096 8.192-10.24 8.192-16.384 0-6.144-2.048-12.288-8.192-16.384l-161.792-122.88c-10.24-8.192-22.528-6.144-30.72 2.048-6.144 8.192-6.144 22.528 4.096 28.672l106.496 81.92C522.24 284.672 327.68 483.328 327.68 727.04z" p-id="7868" fill="#0C0C0C"></path></svg>