<?xml version="1.0" standalone="no"?><!DOCTYPE svg PUBLIC "-//W3C//DTD SVG 1.1//EN" "http://www.w3.org/Graphics/SVG/1.1/DTD/svg11.dtd"><svg t="1589853802327" class="icon" viewBox="0 0 1024 1024" version="1.1" xmlns="http://www.w3.org/2000/svg" p-id="3020" xmlns:xlink="http://www.w3.org/1999/xlink" width="200" height="200"><defs><style type="text/css"></style></defs><path d="M537.073778 104.391111c128.028444-0.199111 249.059556 57.457778 328.220444 156.359111h-54.129778c-16.440889 0-31.630222 8.618667-39.879111 22.613334a44.572444 44.572444 0 0 0 0 45.255111c8.248889 13.994667 23.438222 22.641778 39.879111 22.641777h138.183112c25.429333 0 46.051556-20.280889 46.051555-45.255111V141.368889c0-24.974222-20.622222-45.226667-46.08-45.226667-25.429333 0-46.023111 20.252444-46.023111 45.226667v24.746667C807.296 68.608 675.114667 13.653333 537.073778 13.852444 256.241778 13.880889 28.288 236.544 28.288 511.658667c0 275.143111 227.953778 497.777778 508.785778 497.777777 197.660444 0 369.009778-110.307556 453.262222-271.416888a44.600889 44.600889 0 0 0-2.275556-45.226667 46.307556 46.307556 0 0 0-41.016888-20.650667 46.108444 46.108444 0 0 0-38.684445 24.576c-71.566222 136.618667-214.897778 222.435556-371.285333 222.208-230.343111 0-416.682667-182.528-416.682667-407.267555 0-224.711111 186.311111-407.267556 416.682667-407.267556z" p-id="3021" fill="#ffffff"></path><path d="M541.141333 419.214222c-52.593778 0-95.232 41.386667-95.232 92.444445s42.638222 92.444444 95.232 92.444444c52.622222 0 95.260444-41.386667 95.260445-92.444444s-42.666667-92.444444-95.260445-92.444445z m-190.492444 92.444445c0-66.048 36.323556-127.089778 95.260444-160.113778a195.498667 195.498667 0 0 1 190.492445 0c58.936889 33.024 95.232 94.065778 95.232 160.142222 0 102.115556-85.276444 184.888889-190.492445 184.888889-105.187556 0-190.492444-82.773333-190.492444-184.888889z" p-id="3022" fill="#ffffff"></path></svg>