<?xml version="1.0" standalone="no"?><!DOCTYPE svg PUBLIC "-//W3C//DTD SVG 1.1//EN" "http://www.w3.org/Graphics/SVG/1.1/DTD/svg11.dtd"><svg t="1589870409013" class="icon" viewBox="0 0 1024 1024" version="1.1" xmlns="http://www.w3.org/2000/svg" p-id="9229" xmlns:xlink="http://www.w3.org/1999/xlink" width="200" height="200"><defs><style type="text/css"></style></defs><path d="M512 960c-247.424 0-448-200.576-448-448s200.576-448 448-448 448 200.576 448 448S759.424 960 512 960zM512 176C335.232 176 176 335.296 176 512S335.232 848 512 848c176.704 0 336-159.296 336-336S688.704 176 512 176zM652.032 680 596.032 680c-15.488 0-28.032-12.544-28.032-28.032L568 372.032c0-15.488 12.544-28.032 28.032-28.032l56 0c15.488 0 28.032 12.544 28.032 28.032l0 280C680 667.456 667.456 680 652.032 680zM428.032 680 372.032 680c-15.488 0-28.032-12.544-28.032-28.032L344 372.032c0-15.488 12.544-28.032 28.032-28.032l56 0c15.488 0 28.032 12.544 28.032 28.032l0 280C456 667.456 443.456 680 428.032 680z" p-id="9230" fill="black"></path></svg>